<mxfile host="app.diagrams.net" modified="2020-12-08T08:21:41.845Z" agent="5.0 (Windows NT 10.0; Win64; x64) AppleWebKit/537.36 (KHTML, like Gecko) Chrome/89.0.4343.0 Safari/537.36" etag="4SuovSxpz0p--9mOuewl" version="13.11.0" type="github">
  <diagram id="C5RBs43oDa-KdzZeNtuy" name="Page-1">
    <mxGraphModel dx="657" dy="1074" grid="1" gridSize="10" guides="1" tooltips="1" connect="1" arrows="1" fold="1" page="1" pageScale="1" pageWidth="827" pageHeight="1169" math="0" shadow="0">
      <root>
        <mxCell id="WIyWlLk6GJQsqaUBKTNV-0" />
        <mxCell id="WIyWlLk6GJQsqaUBKTNV-1" parent="WIyWlLk6GJQsqaUBKTNV-0" />
        <mxCell id="x3kQINBDa-Q9TAG9OkQt-0" value="Form1" style="swimlane;fontStyle=1;align=center;verticalAlign=top;childLayout=stackLayout;horizontal=1;startSize=26;horizontalStack=0;resizeParent=1;resizeParentMax=0;resizeLast=0;collapsible=1;marginBottom=0;" parent="WIyWlLk6GJQsqaUBKTNV-1" vertex="1">
          <mxGeometry x="340" y="80" width="270" height="220" as="geometry" />
        </mxCell>
        <mxCell id="x3kQINBDa-Q9TAG9OkQt-1" value="- _comboBoxes: List&lt;ComboBox&gt;" style="text;strokeColor=none;fillColor=none;align=left;verticalAlign=top;spacingLeft=4;spacingRight=4;overflow=hidden;rotatable=0;points=[[0,0.5],[1,0.5]];portConstraint=eastwest;" parent="x3kQINBDa-Q9TAG9OkQt-0" vertex="1">
          <mxGeometry y="26" width="270" height="26" as="geometry" />
        </mxCell>
        <mxCell id="x3kQINBDa-Q9TAG9OkQt-2" value="" style="line;strokeWidth=1;fillColor=none;align=left;verticalAlign=middle;spacingTop=-1;spacingLeft=3;spacingRight=3;rotatable=0;labelPosition=right;points=[];portConstraint=eastwest;" parent="x3kQINBDa-Q9TAG9OkQt-0" vertex="1">
          <mxGeometry y="52" width="270" height="8" as="geometry" />
        </mxCell>
        <mxCell id="x3kQINBDa-Q9TAG9OkQt-3" value="+ Form1()&#xa;- InitializeRadioButtons(): void&#xa;- Form1_Load(object, EventArgs): void&#xa;- FillComboBox(XmlNode): void&#xa;- LoadDocument(): void&#xa;- FillTextBox(List&lt;Student&gt;)&#xa;- SearchBtn_Click(object, EventArgs): void&#xa;- CreateXmlFromChosen(List&lt;Student&gt;): void&#xa;- toHtml_Click(object, EventArgs): void&#xa;- ClearButton_Click(object, EventArgs) " style="text;strokeColor=none;fillColor=none;align=left;verticalAlign=top;spacingLeft=4;spacingRight=4;overflow=hidden;rotatable=0;points=[[0,0.5],[1,0.5]];portConstraint=eastwest;" parent="x3kQINBDa-Q9TAG9OkQt-0" vertex="1">
          <mxGeometry y="60" width="270" height="160" as="geometry" />
        </mxCell>
        <mxCell id="-8bqR4OL3J0FmXEW1adp-0" value="Control Object" style="ellipse;shape=umlControl;whiteSpace=wrap;html=1;" vertex="1" parent="WIyWlLk6GJQsqaUBKTNV-1">
          <mxGeometry x="440" width="70" height="80" as="geometry" />
        </mxCell>
        <mxCell id="-8bqR4OL3J0FmXEW1adp-1" value="«interface»&lt;br&gt;&lt;b&gt;IAnalyser&lt;/b&gt;" style="html=1;" vertex="1" parent="WIyWlLk6GJQsqaUBKTNV-1">
          <mxGeometry x="430" y="465" width="110" height="50" as="geometry" />
        </mxCell>
        <mxCell id="-8bqR4OL3J0FmXEW1adp-2" value="DomAnalyse" style="swimlane;fontStyle=1;align=center;verticalAlign=top;childLayout=stackLayout;horizontal=1;startSize=26;horizontalStack=0;resizeParent=1;resizeParentMax=0;resizeLast=0;collapsible=1;marginBottom=0;" vertex="1" parent="WIyWlLk6GJQsqaUBKTNV-1">
          <mxGeometry x="80" y="450" width="240" height="80" as="geometry" />
        </mxCell>
        <mxCell id="-8bqR4OL3J0FmXEW1adp-4" value="" style="line;strokeWidth=1;fillColor=none;align=left;verticalAlign=middle;spacingTop=-1;spacingLeft=3;spacingRight=3;rotatable=0;labelPosition=right;points=[];portConstraint=eastwest;" vertex="1" parent="-8bqR4OL3J0FmXEW1adp-2">
          <mxGeometry y="26" width="240" height="8" as="geometry" />
        </mxCell>
        <mxCell id="-8bqR4OL3J0FmXEW1adp-5" value="- FillAttributes(XmlNode, Student): Student&#xa;+ Analyse(Student): List&lt;Student&gt;" style="text;strokeColor=none;fillColor=none;align=left;verticalAlign=top;spacingLeft=4;spacingRight=4;overflow=hidden;rotatable=0;points=[[0,0.5],[1,0.5]];portConstraint=eastwest;" vertex="1" parent="-8bqR4OL3J0FmXEW1adp-2">
          <mxGeometry y="34" width="240" height="46" as="geometry" />
        </mxCell>
        <mxCell id="-8bqR4OL3J0FmXEW1adp-6" value="SaxAnalyse" style="swimlane;fontStyle=1;align=center;verticalAlign=top;childLayout=stackLayout;horizontal=1;startSize=26;horizontalStack=0;resizeParent=1;resizeParentMax=0;resizeLast=0;collapsible=1;marginBottom=0;" vertex="1" parent="WIyWlLk6GJQsqaUBKTNV-1">
          <mxGeometry x="80" y="570" width="240" height="70" as="geometry" />
        </mxCell>
        <mxCell id="-8bqR4OL3J0FmXEW1adp-7" value="" style="line;strokeWidth=1;fillColor=none;align=left;verticalAlign=middle;spacingTop=-1;spacingLeft=3;spacingRight=3;rotatable=0;labelPosition=right;points=[];portConstraint=eastwest;" vertex="1" parent="-8bqR4OL3J0FmXEW1adp-6">
          <mxGeometry y="26" width="240" height="8" as="geometry" />
        </mxCell>
        <mxCell id="-8bqR4OL3J0FmXEW1adp-8" value="+ Analyse(Student): List&lt;Student&gt;" style="text;strokeColor=none;fillColor=none;align=left;verticalAlign=top;spacingLeft=4;spacingRight=4;overflow=hidden;rotatable=0;points=[[0,0.5],[1,0.5]];portConstraint=eastwest;" vertex="1" parent="-8bqR4OL3J0FmXEW1adp-6">
          <mxGeometry y="34" width="240" height="36" as="geometry" />
        </mxCell>
        <mxCell id="-8bqR4OL3J0FmXEW1adp-9" value="LinqToXmlAnalyse" style="swimlane;fontStyle=1;align=center;verticalAlign=top;childLayout=stackLayout;horizontal=1;startSize=26;horizontalStack=0;resizeParent=1;resizeParentMax=0;resizeLast=0;collapsible=1;marginBottom=0;" vertex="1" parent="WIyWlLk6GJQsqaUBKTNV-1">
          <mxGeometry x="80" y="680" width="240" height="70" as="geometry" />
        </mxCell>
        <mxCell id="-8bqR4OL3J0FmXEW1adp-10" value="" style="line;strokeWidth=1;fillColor=none;align=left;verticalAlign=middle;spacingTop=-1;spacingLeft=3;spacingRight=3;rotatable=0;labelPosition=right;points=[];portConstraint=eastwest;" vertex="1" parent="-8bqR4OL3J0FmXEW1adp-9">
          <mxGeometry y="26" width="240" height="8" as="geometry" />
        </mxCell>
        <mxCell id="-8bqR4OL3J0FmXEW1adp-11" value="+ Analyse(Student): List&lt;Student&gt;" style="text;strokeColor=none;fillColor=none;align=left;verticalAlign=top;spacingLeft=4;spacingRight=4;overflow=hidden;rotatable=0;points=[[0,0.5],[1,0.5]];portConstraint=eastwest;" vertex="1" parent="-8bqR4OL3J0FmXEW1adp-9">
          <mxGeometry y="34" width="240" height="36" as="geometry" />
        </mxCell>
        <mxCell id="-8bqR4OL3J0FmXEW1adp-12" value="Student" style="swimlane;fontStyle=1;childLayout=stackLayout;horizontal=1;startSize=26;fillColor=none;horizontalStack=0;resizeParent=1;resizeParentMax=0;resizeLast=0;collapsible=1;marginBottom=0;" vertex="1" parent="WIyWlLk6GJQsqaUBKTNV-1">
          <mxGeometry x="80" y="250" width="180" height="140" as="geometry" />
        </mxCell>
        <mxCell id="-8bqR4OL3J0FmXEW1adp-14" value="+ FirstName: string&#xa;+ LastName: string&#xa;+ Faculty: string&#xa;+ Specialization: string&#xa;+ Course: string&#xa;+ Room: string&#xa;+ WhenCheckedInto: string" style="text;strokeColor=none;fillColor=none;align=left;verticalAlign=top;spacingLeft=4;spacingRight=4;overflow=hidden;rotatable=0;points=[[0,0.5],[1,0.5]];portConstraint=eastwest;" vertex="1" parent="-8bqR4OL3J0FmXEW1adp-12">
          <mxGeometry y="26" width="180" height="114" as="geometry" />
        </mxCell>
        <mxCell id="-8bqR4OL3J0FmXEW1adp-16" value="Program" style="swimlane;fontStyle=1;childLayout=stackLayout;horizontal=1;startSize=26;fillColor=none;horizontalStack=0;resizeParent=1;resizeParentMax=0;resizeLast=0;collapsible=1;marginBottom=0;" vertex="1" parent="WIyWlLk6GJQsqaUBKTNV-1">
          <mxGeometry x="80" y="130" width="140" height="52" as="geometry" />
        </mxCell>
        <mxCell id="-8bqR4OL3J0FmXEW1adp-17" value="+ Main(): void" style="text;strokeColor=none;fillColor=none;align=left;verticalAlign=top;spacingLeft=4;spacingRight=4;overflow=hidden;rotatable=0;points=[[0,0.5],[1,0.5]];portConstraint=eastwest;" vertex="1" parent="-8bqR4OL3J0FmXEW1adp-16">
          <mxGeometry y="26" width="140" height="26" as="geometry" />
        </mxCell>
        <mxCell id="-8bqR4OL3J0FmXEW1adp-20" value="Boundary Object" style="shape=umlBoundary;whiteSpace=wrap;html=1;" vertex="1" parent="WIyWlLk6GJQsqaUBKTNV-1">
          <mxGeometry x="100" y="50" width="100" height="80" as="geometry" />
        </mxCell>
        <mxCell id="-8bqR4OL3J0FmXEW1adp-21" value="1" style="endArrow=open;html=1;endSize=12;startArrow=diamondThin;startSize=14;startFill=1;edgeStyle=orthogonalEdgeStyle;align=left;verticalAlign=bottom;entryX=-0.007;entryY=0.119;entryDx=0;entryDy=0;entryPerimeter=0;" edge="1" parent="WIyWlLk6GJQsqaUBKTNV-1" target="x3kQINBDa-Q9TAG9OkQt-3">
          <mxGeometry x="-1" y="3" relative="1" as="geometry">
            <mxPoint x="220" y="160" as="sourcePoint" />
            <mxPoint x="300" y="160" as="targetPoint" />
          </mxGeometry>
        </mxCell>
        <mxCell id="-8bqR4OL3J0FmXEW1adp-22" value="1" style="text;html=1;align=center;verticalAlign=middle;resizable=0;points=[];autosize=1;" vertex="1" parent="WIyWlLk6GJQsqaUBKTNV-1">
          <mxGeometry x="310" y="130" width="20" height="20" as="geometry" />
        </mxCell>
        <mxCell id="-8bqR4OL3J0FmXEW1adp-23" value="1" style="endArrow=open;html=1;endSize=12;startArrow=diamondThin;startSize=14;startFill=1;edgeStyle=orthogonalEdgeStyle;align=left;verticalAlign=bottom;exitX=0.556;exitY=1;exitDx=0;exitDy=0;exitPerimeter=0;entryX=0.5;entryY=0;entryDx=0;entryDy=0;" edge="1" parent="WIyWlLk6GJQsqaUBKTNV-1" source="x3kQINBDa-Q9TAG9OkQt-3" target="-8bqR4OL3J0FmXEW1adp-1">
          <mxGeometry x="-1" y="3" relative="1" as="geometry">
            <mxPoint x="420" y="330" as="sourcePoint" />
            <mxPoint x="490" y="420" as="targetPoint" />
          </mxGeometry>
        </mxCell>
        <mxCell id="-8bqR4OL3J0FmXEW1adp-25" value="1" style="endArrow=open;html=1;endSize=12;startArrow=diamondThin;startSize=14;startFill=1;edgeStyle=orthogonalEdgeStyle;align=left;verticalAlign=bottom;exitX=0;exitY=0.5;exitDx=0;exitDy=0;entryX=1;entryY=0.5;entryDx=0;entryDy=0;" edge="1" parent="WIyWlLk6GJQsqaUBKTNV-1" source="-8bqR4OL3J0FmXEW1adp-1" target="-8bqR4OL3J0FmXEW1adp-5">
          <mxGeometry x="-1" y="3" relative="1" as="geometry">
            <mxPoint x="310" y="549" as="sourcePoint" />
            <mxPoint x="420" y="619" as="targetPoint" />
          </mxGeometry>
        </mxCell>
        <mxCell id="-8bqR4OL3J0FmXEW1adp-26" value="1" style="endArrow=open;html=1;endSize=12;startArrow=diamondThin;startSize=14;startFill=1;edgeStyle=orthogonalEdgeStyle;align=left;verticalAlign=bottom;exitX=0.25;exitY=1;exitDx=0;exitDy=0;entryX=1;entryY=0.5;entryDx=0;entryDy=0;" edge="1" parent="WIyWlLk6GJQsqaUBKTNV-1" source="-8bqR4OL3J0FmXEW1adp-1" target="-8bqR4OL3J0FmXEW1adp-8">
          <mxGeometry x="-1" y="3" relative="1" as="geometry">
            <mxPoint x="450" y="553" as="sourcePoint" />
            <mxPoint x="340" y="569.9999999999998" as="targetPoint" />
          </mxGeometry>
        </mxCell>
        <mxCell id="-8bqR4OL3J0FmXEW1adp-27" value="1" style="endArrow=open;html=1;endSize=12;startArrow=diamondThin;startSize=14;startFill=1;edgeStyle=orthogonalEdgeStyle;align=left;verticalAlign=bottom;exitX=0.75;exitY=1;exitDx=0;exitDy=0;entryX=1;entryY=0.5;entryDx=0;entryDy=0;" edge="1" parent="WIyWlLk6GJQsqaUBKTNV-1" source="-8bqR4OL3J0FmXEW1adp-1" target="-8bqR4OL3J0FmXEW1adp-11">
          <mxGeometry x="-1" y="3" relative="1" as="geometry">
            <mxPoint x="580" y="623" as="sourcePoint" />
            <mxPoint x="500" y="750" as="targetPoint" />
            <Array as="points">
              <mxPoint x="513" y="690" />
              <mxPoint x="500" y="690" />
              <mxPoint x="500" y="732" />
            </Array>
          </mxGeometry>
        </mxCell>
        <mxCell id="-8bqR4OL3J0FmXEW1adp-33" value="1" style="endArrow=open;html=1;endSize=12;startArrow=diamondThin;startSize=14;startFill=0;edgeStyle=orthogonalEdgeStyle;align=left;verticalAlign=bottom;entryX=1;entryY=0.5;entryDx=0;entryDy=0;exitX=0.25;exitY=0;exitDx=0;exitDy=0;" edge="1" parent="WIyWlLk6GJQsqaUBKTNV-1" source="-8bqR4OL3J0FmXEW1adp-1" target="-8bqR4OL3J0FmXEW1adp-14">
          <mxGeometry x="-1" y="3" relative="1" as="geometry">
            <mxPoint x="450" y="460" as="sourcePoint" />
            <mxPoint x="390" y="370" as="targetPoint" />
          </mxGeometry>
        </mxCell>
        <mxCell id="-8bqR4OL3J0FmXEW1adp-34" value="1" style="text;html=1;align=center;verticalAlign=middle;resizable=0;points=[];autosize=1;" vertex="1" parent="WIyWlLk6GJQsqaUBKTNV-1">
          <mxGeometry x="320" y="470" width="20" height="20" as="geometry" />
        </mxCell>
        <mxCell id="-8bqR4OL3J0FmXEW1adp-35" value="1" style="text;html=1;align=center;verticalAlign=middle;resizable=0;points=[];autosize=1;" vertex="1" parent="WIyWlLk6GJQsqaUBKTNV-1">
          <mxGeometry x="320" y="595" width="20" height="20" as="geometry" />
        </mxCell>
        <mxCell id="-8bqR4OL3J0FmXEW1adp-36" value="1" style="text;html=1;align=center;verticalAlign=middle;resizable=0;points=[];autosize=1;" vertex="1" parent="WIyWlLk6GJQsqaUBKTNV-1">
          <mxGeometry x="320" y="705" width="20" height="20" as="geometry" />
        </mxCell>
        <mxCell id="-8bqR4OL3J0FmXEW1adp-37" value="0...n" style="text;html=1;align=center;verticalAlign=middle;resizable=0;points=[];autosize=1;" vertex="1" parent="WIyWlLk6GJQsqaUBKTNV-1">
          <mxGeometry x="260" y="310" width="40" height="20" as="geometry" />
        </mxCell>
      </root>
    </mxGraphModel>
  </diagram>
</mxfile>
